<?xml version="1.0" encoding="UTF-8"?>
<svg version="1.1" xmlns="http://www.w3.org/2000/svg" width="1024" height="1024">
<path d="M0 0 C2.61177558 2.35059802 4.11368657 4.77703581 5.75 7.875 C6.5234375 9.32326172 6.5234375 9.32326172 7.3125 10.80078125 C8.1478125 12.38439453 8.1478125 12.38439453 9 14 C10.24561702 16.35655498 11.49671939 18.70998786 12.75 21.0625 C13.32234375 22.14660156 13.8946875 23.23070312 14.484375 24.34765625 C15.87386581 27.04927741 15.87386581 27.04927741 18 29 C18.99395718 30.9194682 19.94459808 32.86143329 20.875 34.8125 C23.85164452 40.91062039 27.10848713 46.8111495 30.5 52.6875 C35.22429145 60.8744183 39.85979272 69.10517654 44.4375 77.375 C49.7233424 86.91852606 55.05503875 96.43408054 60.43505859 105.92480469 C64.07512243 112.3502989 67.6721836 118.79811213 71.24316406 125.26220703 C75.13282076 132.28298966 79.13166089 139.24084509 83.15454102 146.18603516 C83.64108154 147.03085449 84.12762207 147.87567383 84.62890625 148.74609375 C85.06275635 149.49560303 85.49660645 150.2451123 85.94360352 151.01733398 C87 153 87 153 88 156 C88.66 156.66 89.32 157.32 90 158 C90.97329389 159.87770852 91.90275719 161.77819167 92.8125 163.6875 C96.00079512 170.22915184 99.51881612 176.55562768 103.125 182.875 C107.706469 190.90580434 112.18561401 198.98086807 116.5625 207.125 C121.70954085 216.69158751 127.01911286 226.15337309 132.44140625 235.56640625 C132.87469238 236.31937988 133.30797852 237.07235352 133.75439453 237.84814453 C134.57131866 239.25942821 135.39499941 240.66682696 136.22607422 242.06982422 C139 246.78951118 139 246.78951118 139 249 C139.66 249.33 140.32 249.66 141 250 C141.625 252.5625 141.625 252.5625 142 255 C144.68324322 252.65555268 145.79818676 250.49960299 147.04614258 247.18188477 C147.42168274 246.19583755 147.7972229 245.20979034 148.18414307 244.19386292 C148.78328522 242.58389687 148.78328522 242.58389687 149.39453125 240.94140625 C149.8185321 239.82221298 150.24253296 238.70301971 150.67938232 237.5499115 C151.82647587 234.51862238 152.966588 231.4848168 154.10393143 228.44985962 C155.288868 225.29363519 156.48324218 222.14099173 157.67749023 218.98828125 C158.15646363 217.72354704 158.63542177 216.45880705 159.11436462 215.19406128 C159.35086164 214.56956966 159.58735867 213.94507805 159.83102226 213.30166245 C160.54727117 211.40910944 161.26244987 209.51615531 161.97731018 207.62307739 C165.77976884 197.55860643 169.64635423 187.52070074 173.5625 177.5 C174.11334259 176.08880975 174.66412455 174.67759583 175.21484375 173.26635742 C176.01471574 171.21679823 176.81466622 169.16727023 177.6151123 167.11793518 C179.58189963 162.08001082 181.53564182 157.03712056 183.484375 151.9921875 C183.76687607 151.26102722 184.04937714 150.52986694 184.34043884 149.77655029 C185.42767475 146.96208233 186.51471768 144.14754205 187.59988403 141.33227539 C188.32228521 139.4581819 189.04587587 137.58454705 189.76953125 135.7109375 C190.17792236 134.65181152 190.58631348 133.59268555 191.00708008 132.50146484 C192 130 192 130 193 128 C192.34 127.67 191.68 127.34 191 127 C191.99 127 192.98 127 194 127 C195.76242071 121.37200319 197.34558569 115.81971412 198.375 110.0078125 C199 108 199 108 200.42463684 106.14335632 C201.99020033 104.01333292 202.88898572 102.15770214 203.83081055 99.69848633 C204.15990417 98.84864166 204.4889978 97.998797 204.82806396 97.12319946 C205.17742004 96.20211395 205.52677612 95.28102844 205.88671875 94.33203125 C206.26113098 93.36051117 206.63554321 92.38899109 207.02130127 91.38803101 C208.24919037 88.19839103 209.46834624 85.00548784 210.6875 81.8125 C211.5358666 79.60366388 212.38491288 77.3950887 213.23461914 75.18676758 C214.5367884 71.80251107 215.83856627 68.41811182 217.13804626 65.03282166 C219.95556056 57.69602035 222.80042238 50.37053916 225.671875 43.0546875 C226.03646317 42.12510727 226.40105133 41.19552704 226.77668762 40.23777771 C228.16388304 36.70214332 229.55157656 33.16671624 230.94418335 29.63320923 C234.54518452 20.49272465 238.04158583 11.37311354 241 2 C245.11241022 1.01189956 248.95346357 0.87907787 253.17700195 0.88647461 C253.87998917 0.88632858 254.58297638 0.88618256 255.30726624 0.8860321 C257.61763659 0.88672559 259.92792508 0.89449143 262.23828125 0.90234375 C263.84539241 0.90420994 265.45250415 0.90563289 267.05961609 0.90663147 C271.27968937 0.91044085 275.49972797 0.92025761 279.7197876 0.93133545 C284.02998384 0.94158357 288.3401857 0.94613637 292.65039062 0.95117188 C301.10027629 0.96188133 309.55013383 0.97893873 318 1 C317.45881545 4.67679754 316.77473952 8.00359395 315.40869141 11.45947266 C315.08350021 12.29061081 314.75830902 13.12174896 314.42326355 13.97807312 C314.0696022 14.86444962 313.71594086 15.75082611 313.3515625 16.6640625 C312.98311722 17.60107498 312.61467194 18.53808746 312.23506165 19.50349426 C311.03717938 22.54618645 309.83114393 25.58557451 308.625 28.625 C307.79704924 30.7238196 306.96965902 32.82286042 306.14282227 34.92211914 C304.50886496 39.06825189 302.87190673 43.21317673 301.23193359 47.35693359 C298.45339214 54.37842058 295.69475184 61.40763031 292.9375 68.4375 C290.42038796 74.84704347 287.8996238 81.25510806 285.37109375 87.66015625 C284.53901202 89.77341762 283.70697853 91.886698 282.875 94 C282.49593506 94.95704834 282.11687012 95.91409668 281.72631836 96.90014648 C281.38093018 97.77872314 281.03554199 98.6572998 280.6796875 99.5625 C280.37788574 100.32691406 280.07608398 101.09132813 279.76513672 101.87890625 C278.9718872 103.9517236 278.9718872 103.9517236 278.53442383 105.97070312 C277.8825726 108.44589154 276.86663519 110.59361345 275.76953125 112.90625 C272.79956902 119.33564646 270.22286804 125.8892626 267.6875 132.5 C267.23310547 133.6653125 266.77871094 134.830625 266.31054688 136.03125 C265.66762695 137.701875 265.66762695 137.701875 265.01171875 139.40625 C264.62459717 140.40978516 264.23747559 141.41332031 263.83862305 142.44726562 C262.84394561 145.02719691 262.84394561 145.02719691 263 148 C262.34 148 261.68 148 261 148 C260.59942383 149.2372583 260.19884766 150.4745166 259.78613281 151.74926758 C257.84302355 157.5729938 255.63852818 163.28762692 253.421875 169.01171875 C252.97814041 170.16198044 252.53440582 171.31224213 252.07722473 172.49736023 C250.88355358 175.58964831 249.68793132 178.68116636 248.49119949 181.7722702 C247.74693188 183.6954279 247.00355298 185.61892675 246.26046753 187.5425415 C239.53067966 204.96292553 232.75623795 222.36511186 225.83300781 239.7097168 C221.70492502 250.0738734 217.81686057 260.51742629 214 271 C204.12221986 272.2156738 194.28352697 272.13265816 184.3515625 272.09375 C182.50387609 272.08994811 180.6561893 272.08633121 178.8085022 272.08288574 C157.6941484 272.030436 136.58113336 271.78728838 115.46838379 271.53643799 C110.19639067 271.47433744 104.92436586 271.41504793 99.65234375 271.35546875 C89.43486441 271.23961314 79.21742157 271.12083691 69 271 C68.61124695 270.24656815 68.2224939 269.49313629 67.82196045 268.71687317 C66.3456511 265.8575119 64.8679376 262.99888156 63.38934326 260.14070129 C62.7559069 258.91557879 62.12299276 257.69018611 61.49066162 256.4644928 C56.70077112 247.18116307 51.76462948 237.9876661 46.6751709 228.86453247 C44.31141766 224.62621687 42.50168631 220.63019945 41 216 C40.34 215.67 39.68 215.34 39 215 C38.07373047 213.38037109 38.07373047 213.38037109 37.1171875 211.2734375 C36.75826416 210.49540771 36.39934082 209.71737793 36.02954102 208.91577148 C35.64854248 208.07731689 35.26754395 207.2388623 34.875 206.375 C31.91091212 199.98378008 28.87654668 193.65540075 25.5625 187.4375 C25.2329834 186.81343262 24.9034668 186.18936523 24.56396484 185.54638672 C23.21693699 183.04295481 22.02232512 181.02232512 20 179 C18.72565414 176.59778482 17.50444845 174.19255466 16.3125 171.75 C15.9623584 171.04214355 15.6122168 170.33428711 15.25146484 169.60498047 C13.81955361 166.70953851 12.39686547 163.80961312 10.97509766 160.90917969 C10.33026162 159.59525847 9.68392234 158.28207364 9.03588867 156.96972656 C8.16865694 155.2134138 7.30683959 153.4544306 6.4453125 151.6953125 C5.13765819 148.94498847 5.13765819 148.94498847 3 147 C1.96157435 144.68351201 0.9578025 142.35096976 0 140 C-4.82690245 149.0837938 -9.59778388 158.19496804 -14.28515625 167.3515625 C-14.66193512 168.08742584 -15.03871399 168.82328918 -15.4269104 169.58145142 C-15.80906708 170.32784882 -16.19122375 171.07424622 -16.58496094 171.84326172 C-22.71612407 183.8178404 -28.86302456 195.76152817 -35.42138672 207.50976562 C-38.2535001 212.59573668 -40.95882902 217.73075495 -43.5625 222.9375 C-44.04710693 223.90562622 -44.04710693 223.90562622 -44.54150391 224.89331055 C-45.76969712 227.37935222 -46.94052238 229.83907569 -47.90234375 232.44140625 C-48.86207 234.67849057 -49.89602376 236.47977909 -51.20703125 238.515625 C-54.75063564 244.05535149 -57.68372912 249.90574363 -60.6875 255.75 C-61.26822266 256.87277344 -61.84894531 257.99554687 -62.44726562 259.15234375 C-64.65442393 263.42376918 -66.85332238 267.69784968 -69 272 C-72.466142 272.01307922 -75.93228748 272.02441696 -79.3984375 272.03515625 C-80.48385834 272.03861557 -81.56927917 272.04207489 -82.68759155 272.04563904 C-88.68285533 272.06142516 -94.67761691 272.0616067 -100.67285156 272.03515625 C-103.10742182 272.0247276 -105.54199214 272.01431092 -107.9765625 272.00390625 C-109.18393066 271.99835724 -110.39129883 271.99280823 -111.63525391 271.98709106 C-117.86460712 271.96968029 -124.07732292 272.0305259 -130.30273438 272.25231934 C-152.78803657 273.04885894 -152.78803657 273.04885894 -158.13183594 269.64013672 C-161.58209454 266.05338663 -163.02264747 261.96484656 -164.32519531 257.23730469 C-165.41938564 253.60953327 -167.2300633 250.39789365 -169 247.0625 C-169.66008631 245.73236566 -170.31631609 244.40031078 -170.96875 243.06640625 C-173.37792507 238.20217827 -175.9291263 233.41520847 -178.50390625 228.63696289 C-180.9753893 224.02231405 -183.33180328 219.35420435 -185.6640625 214.66796875 C-188.68704323 208.59503963 -191.75802325 202.54878999 -194.8671875 196.51953125 C-195.27757263 195.72332367 -195.68795776 194.92711609 -196.11077881 194.10678101 C-197.79585418 190.8391417 -199.48218387 187.57215667 -201.17089844 184.30639648 C-202.4258305 181.87846868 -203.67794904 179.44910671 -204.9296875 177.01953125 C-205.3098703 176.28620071 -205.6900531 175.55287018 -206.08175659 174.7973175 C-207.5687589 171.90762833 -208.96209796 169.09862232 -210.12939453 166.0612793 C-210.81144117 163.82346812 -210.81144117 163.82346812 -213 163 C-214.02148437 161.17407227 -214.02148437 161.17407227 -215.09375 158.81640625 C-215.48433594 157.97142578 -215.87492188 157.12644531 -216.27734375 156.25585938 C-216.68082031 155.36705078 -217.08429688 154.47824219 -217.5 153.5625 C-218.29812044 151.81198983 -219.10003586 150.06320356 -219.90625 148.31640625 C-220.26009766 147.53724854 -220.61394531 146.75809082 -220.97851562 145.95532227 C-221.9582897 143.84216236 -221.9582897 143.84216236 -224 142 C-224.72127767 140.35977673 -225.43727911 138.71694023 -226.12060547 137.06054688 C-227.76427513 133.20919431 -229.68209394 129.48992687 -231.5625 125.75 C-232.00303711 124.87158447 -232.44357422 123.99316895 -232.89746094 123.08813477 C-236.17437899 116.58036211 -239.53453234 110.11995898 -242.94506836 103.68139648 C-246.881521 96.24741221 -250.75636436 88.78191068 -254.625 81.3125 C-254.94303589 80.69857391 -255.26107178 80.08464783 -255.58874512 79.45211792 C-257.39329042 75.96848918 -259.1970174 72.48443776 -261 69 C-262.98916706 71.53227474 -264.57712512 73.94984542 -265.91015625 76.87890625 C-266.25506104 77.6255957 -266.59996582 78.37228516 -266.95532227 79.14160156 C-267.32069092 79.94049805 -267.68605957 80.73939453 -268.0625 81.5625 C-273.41993919 93.0736196 -279.36864934 104.2400522 -285.375 115.421875 C-285.92982056 116.45683105 -285.92982056 116.45683105 -286.49584961 117.51269531 C-287.18674294 118.79991703 -287.88010984 120.08581541 -288.57641602 121.37011719 C-289.9367281 123.8980991 -291.08950671 126.26852012 -292 129 C-282.1 128.67 -272.2 128.34 -262 128 C-263.00664673 132.02658693 -264.5683756 135.35307069 -266.4453125 139.01171875 C-267.1763926 140.45477059 -267.9071734 141.8979741 -268.63769531 143.34130859 C-269.02380981 144.10135193 -269.40992432 144.86139526 -269.80773926 145.64447021 C-271.82719972 149.63428477 -273.81379556 153.64040841 -275.8046875 157.64453125 C-276.64430011 159.32889128 -277.4841464 161.01313484 -278.32421875 162.69726562 C-279.59730394 165.24953081 -280.86981262 167.80207218 -282.14013672 170.35571289 C-288.26215522 182.66014117 -294.55347222 194.86256546 -301 207 C-301.96119867 208.81626806 -302.92219796 210.63264168 -303.8828125 212.44921875 C-304.26018555 213.16198975 -304.63755859 213.87476074 -305.02636719 214.60913086 C-309.36871918 222.82389586 -313.59057061 231.08925645 -317.71728516 239.4140625 C-320.29509582 244.61089739 -322.88054022 249.80391265 -325.46960449 254.99514771 C-326.42830801 256.91905371 -327.38458911 258.84415139 -328.34082031 260.76928711 C-328.92831055 261.9475708 -329.51580078 263.12585449 -330.12109375 264.33984375 C-330.91664673 265.93880493 -330.91664673 265.93880493 -331.72827148 267.57006836 C-333 270 -333 270 -334 271 C-336.44010474 271.17651987 -338.85276422 271.28569874 -341.296875 271.3515625 C-342.0854187 271.37512314 -342.8739624 271.39868378 -343.68640137 271.42295837 C-346.37412302 271.4982734 -349.06194379 271.56280734 -351.75 271.625 C-352.67808472 271.64779022 -353.60616943 271.67058044 -354.56237793 271.69406128 C-385.36699627 272.41074201 -416.19844208 271.59249326 -447 271 C-446.34 270.67 -445.68 270.34 -445 270 C-444.30229966 268.01061349 -443.64143873 266.00823325 -443 264 C-442.03013972 261.88655252 -441.01984501 259.79139889 -439.97949219 257.71174622 C-439.67857257 257.10749256 -439.37765295 256.50323891 -439.06761456 255.88067454 C-438.06448667 253.8688113 -437.05569672 251.85984348 -436.046875 249.85083008 C-435.32356074 248.4031278 -434.60059305 246.95525232 -433.87794495 245.50721741 C-431.91623913 241.57896358 -429.94954688 237.65322574 -427.98184586 233.72797227 C-425.9138863 229.60086776 -423.85016979 225.47164237 -421.78588867 221.34269714 C-418.3116457 214.39514784 -414.83431065 207.4491533 -411.35498047 200.50415039 C-407.35600833 192.52184742 -403.3611527 184.5374958 -399.36873055 176.55191499 C-395.09581315 168.00539887 -390.81983151 159.46041848 -386.54298401 150.91586852 C-385.32353123 148.47907461 -384.1046326 146.04200423 -382.88586426 143.60486794 C-367.36559721 112.57408885 -367.36559721 112.57408885 -359.95117188 98.68339539 C-357.2989857 93.71037988 -354.78620655 88.66760491 -352.29296875 83.61328125 C-350.41911866 79.82996316 -348.51792045 76.0608761 -346.61328125 72.29296875 C-345.7096906 70.50094513 -344.80658555 68.70867783 -343.90371704 66.91629028 C-343.01023604 65.14528923 -342.11292756 63.37622085 -341.21557617 61.60717773 C-340.67006104 60.52251221 -340.1245459 59.43784668 -339.5625 58.3203125 C-338.82193359 56.85489014 -338.82193359 56.85489014 -338.06640625 55.35986328 C-336.8627337 53.12784654 -336.8627337 53.12784654 -337 51 C-336.34 51 -335.68 51 -335 51 C-334.62875 49.7934375 -334.62875 49.7934375 -334.25 48.5625 C-330.0212766 36.5106383 -330.0212766 36.5106383 -327 35 C-326.30356015 33.01017187 -325.645124 31.00705243 -325 29 C-321.31201714 19.29666645 -316.79561655 12.56572727 -307.7578125 7.2265625 C-307.17773438 6.82179688 -306.59765625 6.41703125 -306 6 C-306 5.34 -306 4.68 -306 4 C-294.82942823 3.88384072 -283.65900158 3.7951502 -272.48794746 3.74093914 C-267.30001524 3.71491248 -262.11249808 3.67964154 -256.92480469 3.62280273 C-251.91269765 3.56823517 -246.90098833 3.5385274 -241.88860703 3.52561378 C-239.982123 3.51641818 -238.07565927 3.49846155 -236.16934586 3.47134972 C-215.74581536 3.1925947 -215.74581536 3.1925947 -207.28973389 10.47235107 C-201.56389554 16.10022597 -198.26938171 24.49158963 -194.625 31.5625 C-193.18370279 34.33673837 -191.73721249 37.10823981 -190.2890625 39.87890625 C-189.93440414 40.55942551 -189.57974579 41.23994476 -189.21434021 41.94108582 C-186.19144357 47.71042745 -182.97129336 53.35156321 -179.71484375 58.99145508 C-177.73536073 62.4642867 -175.93393662 65.96737637 -174.1875 69.5625 C-170.9165842 76.21049733 -167.54743714 82.80371927 -164.125 89.375 C-163.64828857 90.29740479 -163.17157715 91.21980957 -162.68041992 92.17016602 C-162.23158447 93.02924561 -161.78274902 93.8883252 -161.3203125 94.7734375 C-160.92086426 95.54091309 -160.52141602 96.30838867 -160.10986328 97.09912109 C-159.02172044 99.14768438 -159.02172044 99.14768438 -157 101 C-155.89254716 103.08982148 -154.84215714 105.18457792 -153.8125 107.3125 C-149.8801996 115.29563427 -145.83478242 123.21905223 -141.75 131.125 C-141.4275531 131.74934937 -141.1051062 132.37369873 -140.77288818 133.01696777 C-135.95522276 142.3343801 -131.01951214 151.57945101 -125.9465332 160.76098633 C-122.81651281 166.43843405 -119.88372766 172.15422713 -117.18359375 178.05078125 C-116.08701814 180.33030921 -116.08701814 180.33030921 -113 181 C-112.87625 181.86625 -112.7525 182.7325 -112.625 183.625 C-112.01941879 186.89513853 -111.11693965 189.87256899 -110 193 C-109.01 192.01 -108.02 191.02 -107 190 C-107.33 189.34 -107.66 188.68 -108 188 C-107.01 188 -106.02 188 -105 188 C-104.75507813 187.33871094 -104.51015625 186.67742187 -104.2578125 185.99609375 C-102.67591194 182.22802626 -100.79864688 178.66548248 -98.875 175.0625 C-98.47249023 174.30598145 -98.06998047 173.54946289 -97.65527344 172.77001953 C-94.28319406 166.46494744 -90.75937488 160.25481584 -87.18554688 154.06201172 C-79.6723032 140.99429011 -72.33179598 127.82957792 -65.0625 114.625 C-55.3268065 96.94124857 -45.49401077 79.31458008 -35.46118164 61.79736328 C-31.85397354 55.49891197 -28.26223733 49.19194214 -24.6875 42.875 C-24.15970947 41.94244385 -23.63191895 41.0098877 -23.08813477 40.04907227 C-20.01605824 34.60798837 -16.9712941 29.15254756 -13.94921875 23.68359375 C-13.439105 22.76136017 -13.439105 22.76136017 -12.91868591 21.82049561 C-11.25383913 18.81010403 -9.59222606 15.79801144 -7.9362793 12.78271484 C-7.335979 11.69555176 -6.73567871 10.60838867 -6.1171875 9.48828125 C-5.58722168 8.52446533 -5.05725586 7.56064941 -4.51123047 6.56762695 C-3.13978019 4.23749083 -1.67129188 2.12178414 0 0 Z " fill="#34F841" transform="translate(593,372)"/>
<path d="M0 0 C11.17057177 -0.11615928 22.34099842 -0.2048498 33.51205254 -0.25906086 C38.69998476 -0.28508752 43.88750192 -0.32035846 49.07519531 -0.37719727 C54.08730235 -0.43176483 59.09901167 -0.4614726 64.11139297 -0.47438622 C66.017877 -0.48358182 67.92434073 -0.50153845 69.83065414 -0.52865028 C90.25418464 -0.8074053 90.25418464 -0.8074053 98.71026611 6.47235107 C104.43610446 12.10022597 107.73061829 20.49158963 111.375 27.5625 C112.81629721 30.33673837 114.26278751 33.10823981 115.7109375 35.87890625 C116.06559586 36.55942551 116.42025421 37.23994476 116.78565979 37.94108582 C119.80855643 43.71042745 123.02870664 49.35156321 126.28515625 54.99145508 C128.26463927 58.4642867 130.06606338 61.96737637 131.8125 65.5625 C135.0834158 72.21049733 138.45256286 78.80371927 141.875 85.375 C142.35171143 86.29740479 142.82842285 87.21980957 143.31958008 88.17016602 C143.76841553 89.02924561 144.21725098 89.8883252 144.6796875 90.7734375 C145.07913574 91.54091309 145.47858398 92.30838867 145.89013672 93.09912109 C146.97827956 95.14768438 146.97827956 95.14768438 149 97 C150.10745284 99.08982148 151.15784286 101.18457792 152.1875 103.3125 C156.1198004 111.29563427 160.16521758 119.21905223 164.25 127.125 C164.5724469 127.74934937 164.8948938 128.37369873 165.22711182 129.01696777 C170.04477724 138.3343801 174.98048786 147.57945101 180.0534668 156.76098633 C183.18348719 162.43843405 186.11627234 168.15422713 188.81640625 174.05078125 C189.91298186 176.33030921 189.91298186 176.33030921 193 177 C193.12375 177.86625 193.2475 178.7325 193.375 179.625 C193.98058121 182.89513853 194.88306035 185.87256899 196 189 C196.66 189 197.32 189 198 189 C198.51240234 190.78857422 198.51240234 190.78857422 199.03515625 192.61328125 C201.34693299 199.52971779 204.96279466 205.80620198 208.4375 212.1875 C209.15742497 213.5224602 209.87673788 214.85775065 210.59545898 216.19335938 C215.36431904 225.04193439 220.19661264 233.85606248 225.02612305 242.67163086 C236 262.76456412 236 262.76456412 236 266 C236.66 266 237.32 266 238 266 C237.67 266.66 237.34 267.32 237 268 C233.533858 268.01307922 230.06771252 268.02441696 226.6015625 268.03515625 C225.51614166 268.03861557 224.43072083 268.04207489 223.31240845 268.04563904 C217.31714467 268.06142516 211.32238309 268.0616067 205.32714844 268.03515625 C202.89257818 268.0247276 200.45800786 268.01431092 198.0234375 268.00390625 C196.81606934 267.99835724 195.60870117 267.99280823 194.36474609 267.98709106 C188.13539288 267.96968029 181.92267708 268.0305259 175.69726562 268.25231934 C153.21196343 269.04885894 153.21196343 269.04885894 147.86816406 265.64013672 C144.41790546 262.05338663 142.97735253 257.96484656 141.67480469 253.23730469 C140.58061436 249.60953327 138.7699367 246.39789365 137 243.0625 C136.33991369 241.73236566 135.68368391 240.40031078 135.03125 239.06640625 C132.62207493 234.20217827 130.0708737 229.41520847 127.49609375 224.63696289 C125.0246107 220.02231405 122.66819672 215.35420435 120.3359375 210.66796875 C117.31295677 204.59503963 114.24197675 198.54878999 111.1328125 192.51953125 C110.72242737 191.72332367 110.31204224 190.92711609 109.88922119 190.10678101 C108.20414582 186.8391417 106.51781613 183.57215667 104.82910156 180.30639648 C103.5741695 177.87846868 102.32205096 175.44910671 101.0703125 173.01953125 C100.6901297 172.28620071 100.3099469 171.55287018 99.91824341 170.7973175 C98.4312411 167.90762833 97.03790204 165.09862232 95.87060547 162.0612793 C95.18855883 159.82346812 95.18855883 159.82346812 93 159 C91.97851562 157.17407227 91.97851562 157.17407227 90.90625 154.81640625 C90.51566406 153.97142578 90.12507812 153.12644531 89.72265625 152.25585938 C89.31917969 151.36705078 88.91570312 150.47824219 88.5 149.5625 C87.70187956 147.81198983 86.89996414 146.06320356 86.09375 144.31640625 C85.73990234 143.53724854 85.38605469 142.75809082 85.02148438 141.95532227 C84.0417103 139.84216236 84.0417103 139.84216236 82 138 C81.27872233 136.35977673 80.56272089 134.71694023 79.87939453 133.06054688 C78.23572487 129.20919431 76.31790606 125.48992687 74.4375 121.75 C73.99696289 120.87158447 73.55642578 119.99316895 73.10253906 119.08813477 C69.82562101 112.58036211 66.46546766 106.11995898 63.05493164 99.68139648 C59.118479 92.24741221 55.24363564 84.78191068 51.375 77.3125 C51.05696411 76.69857391 50.73892822 76.08464783 50.41125488 75.45211792 C48.60670958 71.96848918 46.8029826 68.48443776 45 65 C43.01083294 67.53227474 41.42287488 69.94984542 40.08984375 72.87890625 C39.74493896 73.6255957 39.40003418 74.37228516 39.04467773 75.14160156 C38.67930908 75.94049805 38.31394043 76.73939453 37.9375 77.5625 C32.58006081 89.0736196 26.63135066 100.2400522 20.625 111.421875 C20.07017944 112.45683105 20.07017944 112.45683105 19.50415039 113.51269531 C18.81325706 114.79991703 18.11989016 116.08581541 17.42358398 117.37011719 C16.0632719 119.8980991 14.91049329 122.26852012 14 125 C23.9 124.67 33.8 124.34 44 124 C42.99335327 128.02658693 41.4316244 131.35307069 39.5546875 135.01171875 C38.8236074 136.45477059 38.0928266 137.8979741 37.36230469 139.34130859 C36.97619019 140.10135193 36.59007568 140.86139526 36.19226074 141.64447021 C34.17280028 145.63428477 32.18620444 149.64040841 30.1953125 153.64453125 C29.35569989 155.32889128 28.5158536 157.01313484 27.67578125 158.69726562 C26.40269606 161.24953081 25.13018738 163.80207218 23.85986328 166.35571289 C17.73784478 178.66014117 11.44652778 190.86256546 5 203 C4.03880133 204.81626806 3.07780204 206.63264168 2.1171875 208.44921875 C1.73981445 209.16198975 1.36244141 209.87476074 0.97363281 210.60913086 C-3.36871918 218.82389586 -7.59057061 227.08925645 -11.71728516 235.4140625 C-14.29509582 240.61089739 -16.88054022 245.80391265 -19.46960449 250.99514771 C-20.42830801 252.91905371 -21.38458911 254.84415139 -22.34082031 256.76928711 C-22.92831055 257.9475708 -23.51580078 259.12585449 -24.12109375 260.33984375 C-24.91664673 261.93880493 -24.91664673 261.93880493 -25.72827148 263.57006836 C-27 266 -27 266 -28 267 C-30.44010474 267.17651987 -32.85276422 267.28569874 -35.296875 267.3515625 C-36.0854187 267.37512314 -36.8739624 267.39868378 -37.68640137 267.42295837 C-40.37412302 267.4982734 -43.06194379 267.56280734 -45.75 267.625 C-46.67808472 267.64779022 -47.60616943 267.67058044 -48.56237793 267.69406128 C-79.36699627 268.41074201 -110.19844208 267.59249326 -141 267 C-140.34 266.67 -139.68 266.34 -139 266 C-138.30229966 264.01061349 -137.64143873 262.00823325 -137 260 C-136.03013972 257.88655252 -135.01984501 255.79139889 -133.97949219 253.71174622 C-133.67857257 253.10749256 -133.37765295 252.50323891 -133.06761456 251.88067454 C-132.06448667 249.8688113 -131.05569672 247.85984348 -130.046875 245.85083008 C-129.32356074 244.4031278 -128.60059305 242.95525232 -127.87794495 241.50721741 C-125.91623913 237.57896358 -123.94954688 233.65322574 -121.98184586 229.72797227 C-119.9138863 225.60086776 -117.85016979 221.47164237 -115.78588867 217.34269714 C-112.3116457 210.39514784 -108.83431065 203.4491533 -105.35498047 196.50415039 C-101.35600833 188.52184742 -97.3611527 180.5374958 -93.36873055 172.55191499 C-89.09581315 164.00539887 -84.81983151 155.46041848 -80.54298401 146.91586852 C-79.32353123 144.47907461 -78.1046326 142.04200423 -76.88586426 139.60486794 C-61.36559721 108.57408885 -61.36559721 108.57408885 -53.95117188 94.68339539 C-51.2989857 89.71037988 -48.78620655 84.66760491 -46.29296875 79.61328125 C-44.41911866 75.82996316 -42.51792045 72.0608761 -40.61328125 68.29296875 C-39.7096906 66.50094513 -38.80658555 64.70867783 -37.90371704 62.91629028 C-37.01023604 61.14528923 -36.11292756 59.37622085 -35.21557617 57.60717773 C-34.67006104 56.52251221 -34.1245459 55.43784668 -33.5625 54.3203125 C-32.82193359 52.85489014 -32.82193359 52.85489014 -32.06640625 51.35986328 C-30.8627337 49.12784654 -30.8627337 49.12784654 -31 47 C-30.34 47 -29.68 47 -29 47 C-28.62875 45.7934375 -28.62875 45.7934375 -28.25 44.5625 C-24.0212766 32.5106383 -24.0212766 32.5106383 -21 31 C-20.30356015 29.01017187 -19.645124 27.00705243 -19 25 C-15.31201714 15.29666645 -10.79561655 8.56572727 -1.7578125 3.2265625 C-0.88769531 2.61941406 -0.88769531 2.61941406 0 2 C0 1.34 0 0.68 0 0 Z " fill="#2977FC" transform="translate(287,376)"/>
<path d="M0 0 C6.3182547 4.16910858 10.843558 9.62955768 13 16.9375 C14.32317894 26.13292535 12.30823732 33.33502452 7 40.9375 C1.28648382 46.78705228 -4.72215463 48.98520411 -12.8125 49.3125 C-20.04216952 49.1779528 -25.1753658 47.24856435 -30.75 42.6875 C-36.73466444 35.37291013 -39.64228475 29.57177126 -39 19.9375 C-37.08789727 11.88136128 -33.78536483 5.8560058 -26.9765625 1.015625 C-19.01380893 -3.32769513 -8.17269724 -4.21816632 0 0 Z " fill="#34F33F" transform="translate(916,320.0625)"/>
<path d="M0 0 C3.0679175 2.63221629 4.56039489 5.72151627 6.37109375 9.30078125 C6.68899368 9.92409836 7.00689362 10.54741547 7.33442688 11.18962097 C8.0172094 12.52917081 8.69752443 13.86998067 9.37561035 15.21191406 C11.1790125 18.7793292 13.00156909 22.33692111 14.82421875 25.89453125 C15.1868985 26.60316315 15.54957825 27.31179504 15.92324829 28.04190063 C18.76729109 33.58367593 21.72443199 39.05517712 24.75 44.5 C31.32494963 56.37875006 37.45612354 68.48678543 43.62011719 80.58203125 C47.70785726 88.60106476 51.8145565 96.60938149 55.9921875 104.58203125 C56.34717316 105.26279221 56.70215881 105.94355316 57.06790161 106.64494324 C61.55993788 115.18408993 66.31105199 123.55989358 71 132 C117.53 132 164.06 132 212 132 C213.98 126.72 215.96 121.44 218 116 C219.05826819 113.28693776 220.12523231 110.57719957 221.2109375 107.875 C221.46880035 107.23175781 221.72666321 106.58851563 221.99234009 105.92578125 C222.78488447 103.94984289 223.5798669 101.97489781 224.375 100 C224.92594699 98.62767069 225.47672873 97.25527504 226.02734375 95.8828125 C227.34967339 92.58778055 228.67418476 89.29363127 230 86 C231.34693384 89.66825673 230.64147659 91.64886345 229.15625 95.19140625 C228.73714355 96.21049072 228.31803711 97.2295752 227.88623047 98.27954102 C227.42877441 99.36291748 226.97131836 100.44629395 226.5 101.5625 C225.57338161 103.81161985 224.6489249 106.06163143 223.7265625 108.3125 C223.26540039 109.43398438 222.80423828 110.55546875 222.32910156 111.7109375 C220.41054186 116.45870316 218.62559724 121.25069047 216.875 126.0625 C216.58044922 126.87082275 216.28589844 127.67914551 215.98242188 128.51196289 C215.31856176 130.34020295 214.65874492 132.16991063 214 134 C204.12221986 135.2156738 194.28352697 135.13265816 184.3515625 135.09375 C182.50387609 135.08994811 180.6561893 135.08633121 178.8085022 135.08288574 C157.6941484 135.030436 136.58113336 134.78728838 115.46838379 134.53643799 C110.19639067 134.47433744 104.92436586 134.41504793 99.65234375 134.35546875 C89.43486441 134.23961314 79.21742157 134.12083691 69 134 C68.61124695 133.24656815 68.2224939 132.49313629 67.82196045 131.71687317 C66.3456511 128.8575119 64.8679376 125.99888156 63.38934326 123.14070129 C62.7559069 121.91557879 62.12299276 120.69018611 61.49066162 119.4644928 C56.70077112 110.18116307 51.76462948 100.9876661 46.6751709 91.86453247 C44.31141766 87.62621687 42.50168631 83.63019945 41 79 C40.01 78.505 40.01 78.505 39 78 C38.07373047 76.38037109 38.07373047 76.38037109 37.1171875 74.2734375 C36.57880249 73.10639282 36.57880249 73.10639282 36.02954102 71.91577148 C35.64854248 71.07731689 35.26754395 70.2388623 34.875 69.375 C31.91091212 62.98378008 28.87654668 56.65540075 25.5625 50.4375 C25.2329834 49.81343262 24.9034668 49.18936523 24.56396484 48.54638672 C23.21693699 46.04295481 22.02232512 44.02232512 20 42 C18.72565414 39.59778482 17.50444845 37.19255466 16.3125 34.75 C15.7872876 33.68821533 15.7872876 33.68821533 15.25146484 32.60498047 C13.81955361 29.70953851 12.39686547 26.80961312 10.97509766 23.90917969 C10.33026162 22.59525847 9.68392234 21.28207364 9.03588867 19.96972656 C8.16865694 18.2134138 7.30683959 16.4544306 6.4453125 14.6953125 C5.13765819 11.94498847 5.13765819 11.94498847 3 10 C0 3.65384615 0 3.65384615 0 0 Z " fill="#1CAE1A" transform="translate(593,509)"/>
<path d="M0 0 C25.08 0 50.16 0 76 0 C75.67 0.99 75.34 1.98 75 3 C65.94222056 3.02317038 56.88445132 3.04093907 47.82664871 3.05181217 C43.62074995 3.05703071 39.41487147 3.06410971 35.20898438 3.07543945 C31.15007071 3.08630486 27.09117654 3.0922846 23.03224945 3.09487724 C21.48370812 3.09672489 19.93516785 3.10033286 18.38663483 3.10573006 C16.21769402 3.11298894 14.04883381 3.11398889 11.87988281 3.11352539 C10.64522278 3.115746 9.41056274 3.11796661 8.13848877 3.12025452 C5 3 5 3 1 2 C0.01 4.97 -0.98 7.94 -2 11 C-3 8 -3 8 0 0 Z " fill="#25C925" transform="translate(835,373)"/>
<path d="M0 0 C1 2 1 2 0.12646484 4.80859375 C-0.34065918 6.00613281 -0.8077832 7.20367188 -1.2890625 8.4375 C-1.54393433 9.09764099 -1.79880615 9.75778198 -2.06140137 10.43792725 C-2.90881304 12.62812239 -3.76687089 14.8139842 -4.625 17 C-5.21544806 18.51955894 -5.80511913 20.03942 -6.39404297 21.55957031 C-7.31375082 23.93266779 -8.234252 26.30543576 -9.15774536 28.67706299 C-11.35117431 34.3109723 -13.51312152 39.95615433 -15.65625 45.609375 C-16.2439766 47.15755257 -16.83170444 48.70572966 -17.41943359 50.25390625 C-18.26695131 52.48700807 -19.11379347 54.72035231 -19.95831299 56.95458984 C-20.74272095 59.02814295 -21.53109016 61.10015041 -22.3203125 63.171875 C-22.76648926 64.3484668 -23.21266602 65.52505859 -23.67236328 66.73730469 C-24.96638719 69.9173958 -26.42181738 72.95235529 -28 76 C-31.09570611 72.25360407 -33.16287393 68.04720435 -35.375 63.75 C-38.05838683 58.54052834 -40.83427993 53.56354983 -44.16650391 48.73535156 C-45 47 -45 47 -44 44 C-42.34587239 46.7450908 -40.70319166 49.4968612 -39.0625 52.25 C-38.35963867 53.41595703 -38.35963867 53.41595703 -37.64257812 54.60546875 C-37.19462891 55.35957031 -36.74667969 56.11367188 -36.28515625 56.890625 C-35.87144775 57.58188477 -35.45773926 58.27314453 -35.03149414 58.98535156 C-34 61 -34 61 -33.48217773 63.19433594 C-33.32305908 63.79020508 -33.16394043 64.38607422 -33 65 C-32.34 65.33 -31.68 65.66 -31 66 C-30.375 68.5625 -30.375 68.5625 -30 71 C-27.19251164 68.57995622 -26.1071832 66.24767939 -24.81103516 62.80102539 C-24.40696442 61.73884293 -24.00289368 60.67666046 -23.58657837 59.58229065 C-23.15839813 58.4323613 -22.7302179 57.28243195 -22.2890625 56.09765625 C-21.83904877 54.9095787 -21.38903503 53.72150116 -20.92538452 52.49742126 C-19.72804602 49.33290447 -18.53756002 46.16598837 -17.35064697 42.99755859 C-15.69033518 38.57006049 -14.01791869 34.14712354 -12.34603882 29.72398376 C-11.45825082 27.37315082 -10.57317309 25.02129186 -9.6913147 22.66822815 C-1.8618779 1.8618779 -1.8618779 1.8618779 0 0 Z " fill="#23C522" transform="translate(765,556)"/>
<path d="M0 0 C2.61177558 2.35059802 4.11368657 4.77703581 5.75 7.875 C7.46676135 11.11392759 9.18517205 14.34697476 10.98046875 17.54296875 C11.3062793 18.12900879 11.63208984 18.71504883 11.96777344 19.31884766 C12.90103613 20.9969348 13.83909392 22.67235241 14.77734375 24.34765625 C15.18082031 25.22292969 15.58429687 26.09820312 16 27 C15.67 27.66 15.34 28.32 15 29 C13.41591638 26.31294159 11.832873 23.62527171 10.25 20.9375 C9.58484375 19.80924805 9.58484375 19.80924805 8.90625 18.65820312 C6.23689237 14.12422068 3.59992326 9.57416406 1 5 C-1.8818779 7.68747313 -3.86418362 10.19482164 -5.69921875 13.67578125 C-6.18229492 14.57989746 -6.66537109 15.48401367 -7.16308594 16.41552734 C-7.66614258 17.37152832 -8.16919922 18.3275293 -8.6875 19.3125 C-13.53642111 28.37767917 -18.60353239 37.25118131 -24 46 C-24.33 45.34 -24.66 44.68 -25 44 C-24.09472656 41.87133789 -24.09472656 41.87133789 -22.640625 39.22265625 C-22.10663086 38.24240479 -21.57263672 37.26215332 -21.02246094 36.25219727 C-20.43754883 35.19959717 -19.85263672 34.14699707 -19.25 33.0625 C-18.36876465 31.45749634 -18.36876465 31.45749634 -17.46972656 29.82006836 C-2.28880006 2.28880006 -2.28880006 2.28880006 0 0 Z " fill="#27C225" transform="translate(593,372)"/>
<path d="M0 0 C2.2212569 2.07197566 3.77354751 4.07911996 5.26171875 6.72265625 C5.65810547 7.42583984 6.05449219 8.12902344 6.46289062 8.85351562 C6.86701172 9.58248047 7.27113281 10.31144531 7.6875 11.0625 C8.10322266 11.79533203 8.51894531 12.52816406 8.94726562 13.28320312 C12 18.74203356 12 18.74203356 12 21 C12.66 21.33 13.32 21.66 14 22 C14.625 24.5625 14.625 24.5625 15 27 C15.99 26.67 16.98 26.34 18 26 C18.33 26.99 18.66 27.98 19 29 C18.01 29.99 17.02 30.98 16 32 C15.69296143 31.40574219 15.38592285 30.81148437 15.06958008 30.19921875 C13.65402229 27.46433451 12.23329873 24.73216495 10.8125 22 C10.32974609 21.06542969 9.84699219 20.13085938 9.34960938 19.16796875 C6.74260589 14.16392179 4.05266105 9.33209948 0.8894043 4.65625 C0 3 0 3 0 0 Z " fill="#27CD28" transform="translate(720,600)"/>
<path d="M0 0 C2.75921019 2.44428089 4.24034739 5.05917073 5.91796875 8.32421875 C6.71557617 9.86625977 6.71557617 9.86625977 7.52929688 11.43945312 C8.07650391 12.51130859 8.62371094 13.58316406 9.1875 14.6875 C10.02571289 16.31268555 10.02571289 16.31268555 10.88085938 17.97070312 C12.25901496 20.64456055 13.63182983 23.32102329 15 26 C14.34 26.66 13.68 27.32 13 28 C12.44570313 26.86820313 11.89140625 25.73640625 11.3203125 24.5703125 C10.5887537 23.08843697 9.85697122 21.60667185 9.125 20.125 C8.57779297 19.00544922 8.57779297 19.00544922 8.01953125 17.86328125 C7.66503906 17.14785156 7.31054688 16.43242188 6.9453125 15.6953125 C6.62062988 15.03547363 6.29594727 14.37563477 5.96142578 13.69580078 C4.99724181 11.81965314 4.99724181 11.81965314 3 10 C0 3.65384615 0 3.65384615 0 0 Z " fill="#24C624" transform="translate(593,509)"/>
<path d="M0 0 C6.27 0 12.54 0 19 0 C19.33 0.66 19.66 1.32 20 2 C13.73 2 7.46 2 1 2 C0.01 4.97 -0.98 7.94 -2 11 C-3 8 -3 8 0 0 Z " fill="#27BE26" transform="translate(835,373)"/>
<path d="M0 0 C2.97 0 5.94 0 9 0 C9 0.99 9 1.98 9 3 C1.08 3 -6.84 3 -15 3 C-15 2.67 -15 2.34 -15 2 C-10.05 2 -5.1 2 0 2 C0 1.34 0 0.68 0 0 Z " fill="#2DDB31" transform="translate(855,373)"/>
<path d="M0 0 C4.22797927 3.08290155 4.22797927 3.08290155 6 5 C6.375 7.8125 6.375 7.8125 6 10 C3 9 3 9 1.3125 6.125 C0 3 0 3 0 0 Z " fill="#2FFA35" transform="translate(514,621)"/>
<path d="M0 0 C1 2 1 2 1 6 C-0.13304992 9.39914975 -1.12518475 10.05254451 -4 12 C-3.45660208 7.43545749 -2.20536179 4.0271824 0 0 Z " fill="#28C928" transform="translate(831,385)"/>
<path d="M0 0 C6 7.71428571 6 7.71428571 6 12 C5.01 12 4.02 12 3 12 C2.49440092 10.56445975 1.9957251 9.1264798 1.5 7.6875 C1.2215625 6.88699219 0.943125 6.08648438 0.65625 5.26171875 C0 3 0 3 0 0 Z " fill="#2068F0" transform="translate(486,572)"/>
<path d="M0 0 C0.66 0.99 1.32 1.98 2 3 C1.47599609 3.83144531 1.47599609 3.83144531 0.94140625 4.6796875 C0.48636719 5.40414062 0.03132812 6.12859375 -0.4375 6.875 C-0.88996094 7.59429688 -1.34242188 8.31359375 -1.80859375 9.0546875 C-3.02461501 10.9777547 -3.02461501 10.9777547 -4 13 C-4.66 12.67 -5.32 12.34 -6 12 C-4.02 8.04 -2.04 4.08 0 0 Z " fill="#3582FC" transform="translate(156,627)"/>
<path d="M0 0 C0.99 0.33 1.98 0.66 3 1 C4.6875 4.5625 4.6875 4.5625 6 8 C5.01 8.495 5.01 8.495 4 9 C0 2.25 0 2.25 0 0 Z " fill="#2CD22D" transform="translate(602,528)"/>
<path d="M0 0 C0 0.66 0 1.32 0 2 C0.66 2 1.32 2 2 2 C1.67 2.66 1.34 3.32 1 4 C-3.455 3.01 -3.455 3.01 -8 2 C-8 1.67 -8 1.34 -8 1 C-5.23735711 0.40267181 -2.83967231 0 0 0 Z " fill="#306FDE" transform="translate(523,640)"/>
<path d="M0 0 C0.99 0.33 1.98 0.66 3 1 C2.67 1.66 2.34 2.32 2 3 C1.34 2.67 0.68 2.34 0 2 C0 1.34 0 0.68 0 0 Z " fill="#3A7DF5" transform="translate(392,562)"/>
<path d="M0 0 C0.66 0 1.32 0 2 0 C1.67 0.99 1.34 1.98 1 3 C0.67 2.01 0.34 1.02 0 0 Z " fill="#4296E4" transform="translate(469,535)"/>
<path d="M0 0 C0 3 0 3 0 3 Z " fill="#3D87F3" transform="translate(454,504)"/>
<path d="M0 0 C0.33 0.66 0.66 1.32 1 2 C0.34 1.67 -0.32 1.34 -1 1 C-0.67 0.67 -0.34 0.34 0 0 Z " fill="#48EC4D" transform="translate(657,636)"/>
<path d="M0 0 C0.66 0.66 1.32 1.32 2 2 C1.34 2 0.68 2 0 2 C0 1.34 0 0.68 0 0 Z " fill="#397BF4" transform="translate(412,598)"/>
<path d="" fill="#42F54F" transform="translate(0,0)"/>
<path d="" fill="#48EB4F" transform="translate(0,0)"/>
<path d="" fill="#387CF4" transform="translate(0,0)"/>
<path d="" fill="#45F44D" transform="translate(0,0)"/>
<path d="" fill="#42BCB8" transform="translate(0,0)"/>
<path d="" fill="#45F552" transform="translate(0,0)"/>
<path d="" fill="#47F64E" transform="translate(0,0)"/>
<path d="" fill="#43F34D" transform="translate(0,0)"/>
<path d="" fill="#45F64F" transform="translate(0,0)"/>
<path d="" fill="#40F34E" transform="translate(0,0)"/>
<path d="M0 0 C2 1 2 1 2 1 Z " fill="#47F04B" transform="translate(794,472)"/>
<path d="" fill="#3C83F7" transform="translate(0,0)"/>
<path d="M0 0 C2 1 2 1 2 1 Z " fill="#49E34D" transform="translate(897,316)"/>
<path d="" fill="#46DB48" transform="translate(0,0)"/>
<path d="" fill="#48DD48" transform="translate(0,0)"/>
<path d="" fill="#48EE4B" transform="translate(0,0)"/>
<path d="" fill="#45E94B" transform="translate(0,0)"/>
<path d="" fill="#3E7EF3" transform="translate(0,0)"/>
<path d="" fill="#4086EC" transform="translate(0,0)"/>
<path d="" fill="#4186EE" transform="translate(0,0)"/>
<path d="" fill="#3E7BEA" transform="translate(0,0)"/>
<path d="" fill="#3F7FE9" transform="translate(0,0)"/>
<path d="" fill="#3D7BE8" transform="translate(0,0)"/>
<path d="" fill="#4079E9" transform="translate(0,0)"/>
<path d="" fill="#4073D9" transform="translate(0,0)"/>
<path d="" fill="#3A81F4" transform="translate(0,0)"/>
<path d="" fill="#4AD479" transform="translate(0,0)"/>
<path d="" fill="#3B7AED" transform="translate(0,0)"/>
<path d="" fill="#48EA4F" transform="translate(0,0)"/>
<path d="" fill="#3D79F0" transform="translate(0,0)"/>
<path d="" fill="#47EC50" transform="translate(0,0)"/>
<path d="" fill="#44E060" transform="translate(0,0)"/>
<path d="" fill="#3C78E8" transform="translate(0,0)"/>
<path d="" fill="#45F54C" transform="translate(0,0)"/>
<path d="" fill="#43F74D" transform="translate(0,0)"/>
<path d="" fill="#3C7DF0" transform="translate(0,0)"/>
<path d="" fill="#46E849" transform="translate(0,0)"/>
<path d="" fill="#397CF4" transform="translate(0,0)"/>
<path d="" fill="#46EC49" transform="translate(0,0)"/>
<path d="" fill="#397CF3" transform="translate(0,0)"/>
<path d="" fill="#46ED49" transform="translate(0,0)"/>
<path d="" fill="#3B7BF3" transform="translate(0,0)"/>
<path d="" fill="#45F950" transform="translate(0,0)"/>
<path d="" fill="#47F74F" transform="translate(0,0)"/>
<path d="" fill="#47EC4C" transform="translate(0,0)"/>
<path d="" fill="#47F14C" transform="translate(0,0)"/>
<path d="" fill="#3D7CF1" transform="translate(0,0)"/>
<path d="" fill="#41F44B" transform="translate(0,0)"/>
<path d="" fill="#45F14C" transform="translate(0,0)"/>
<path d="" fill="#3A7AF3" transform="translate(0,0)"/>
<path d="" fill="#44FA4B" transform="translate(0,0)"/>
<path d="" fill="#44F64F" transform="translate(0,0)"/>
<path d="" fill="#3A7BF3" transform="translate(0,0)"/>
<path d="" fill="#43F74C" transform="translate(0,0)"/>
<path d="" fill="#47F253" transform="translate(0,0)"/>
<path d="" fill="#3A79F4" transform="translate(0,0)"/>
<path d="" fill="#48F34F" transform="translate(0,0)"/>
<path d="" fill="#3C7AF5" transform="translate(0,0)"/>
<path d="" fill="#377AF4" transform="translate(0,0)"/>
<path d="" fill="#387AF4" transform="translate(0,0)"/>
<path d="" fill="#3E7FF4" transform="translate(0,0)"/>
<path d="" fill="#3D7BF0" transform="translate(0,0)"/>
<path d="" fill="#45EF49" transform="translate(0,0)"/>
<path d="" fill="#3A7BF4" transform="translate(0,0)"/>
<path d="" fill="#45EF4C" transform="translate(0,0)"/>
<path d="" fill="#46F14C" transform="translate(0,0)"/>
<path d="" fill="#45F44B" transform="translate(0,0)"/>
<path d="" fill="#3C80F7" transform="translate(0,0)"/>
<path d="" fill="#3EF355" transform="translate(0,0)"/>
<path d="" fill="#397EFA" transform="translate(0,0)"/>
<path d="" fill="#4AF14E" transform="translate(0,0)"/>
<path d="" fill="#44F850" transform="translate(0,0)"/>
<path d="" fill="#45ED4D" transform="translate(0,0)"/>
<path d="" fill="#45F64D" transform="translate(0,0)"/>
<path d="" fill="#46F64E" transform="translate(0,0)"/>
<path d="" fill="#47F14E" transform="translate(0,0)"/>
<path d="" fill="#44F64F" transform="translate(0,0)"/>
<path d="" fill="#377BF6" transform="translate(0,0)"/>
<path d="" fill="#45EE4F" transform="translate(0,0)"/>
<path d="" fill="#4193E6" transform="translate(0,0)"/>
<path d="" fill="#45F64B" transform="translate(0,0)"/>
<path d="" fill="#46F64F" transform="translate(0,0)"/>
<path d="" fill="#42F24D" transform="translate(0,0)"/>
<path d="" fill="#4195E6" transform="translate(0,0)"/>
<path d="" fill="#43F650" transform="translate(0,0)"/>
<path d="" fill="#44F74D" transform="translate(0,0)"/>
<path d="" fill="#377EF4" transform="translate(0,0)"/>
<path d="" fill="#3A7BF9" transform="translate(0,0)"/>
<path d="" fill="#44F24E" transform="translate(0,0)"/>
<path d="" fill="#4393E5" transform="translate(0,0)"/>
<path d="" fill="#43F14A" transform="translate(0,0)"/>
<path d="" fill="#4BDC77" transform="translate(0,0)"/>
<path d="" fill="#46F951" transform="translate(0,0)"/>
<path d="" fill="#367CF8" transform="translate(0,0)"/>
<path d="" fill="#44F64D" transform="translate(0,0)"/>
<path d="" fill="#48F34F" transform="translate(0,0)"/>
<path d="" fill="#47E469" transform="translate(0,0)"/>
<path d="" fill="#3A7DF4" transform="translate(0,0)"/>
<path d="" fill="#42F34D" transform="translate(0,0)"/>
<path d="" fill="#44EE4C" transform="translate(0,0)"/>
<path d="" fill="#3D7EF5" transform="translate(0,0)"/>
<path d="" fill="#48F54F" transform="translate(0,0)"/>
<path d="" fill="#3079F5" transform="translate(0,0)"/>
<path d="" fill="#387AF8" transform="translate(0,0)"/>
<path d="" fill="#47F64E" transform="translate(0,0)"/>
<path d="" fill="#3380F8" transform="translate(0,0)"/>
<path d="" fill="#3D87F3" transform="translate(0,0)"/>
<path d="" fill="#45F14B" transform="translate(0,0)"/>
<path d="" fill="#4DE074" transform="translate(0,0)"/>
<path d="" fill="#49F34E" transform="translate(0,0)"/>
<path d="" fill="#3DF153" transform="translate(0,0)"/>
<path d="" fill="#48F54C" transform="translate(0,0)"/>
<path d="" fill="#3C82F4" transform="translate(0,0)"/>
<path d="" fill="#377FF7" transform="translate(0,0)"/>
<path d="" fill="#49F04B" transform="translate(0,0)"/>
<path d="" fill="#4AF14B" transform="translate(0,0)"/>
<path d="" fill="#47F14E" transform="translate(0,0)"/>
<path d="" fill="#46F14D" transform="translate(0,0)"/>
<path d="" fill="#48F04C" transform="translate(0,0)"/>
<path d="" fill="#47F350" transform="translate(0,0)"/>
<path d="" fill="#367EFC" transform="translate(0,0)"/>
<path d="" fill="#41F54A" transform="translate(0,0)"/>
<path d="" fill="#377CFA" transform="translate(0,0)"/>
<path d="" fill="#4AF050" transform="translate(0,0)"/>
<path d="" fill="#46EB4B" transform="translate(0,0)"/>
<path d="" fill="#3C86F9" transform="translate(0,0)"/>
<path d="" fill="#3E7DF2" transform="translate(0,0)"/>
<path d="" fill="#46F34B" transform="translate(0,0)"/>
<path d="" fill="#3E83F8" transform="translate(0,0)"/>
<path d="" fill="#46EC57" transform="translate(0,0)"/>
<path d="" fill="#4BEB5B" transform="translate(0,0)"/>
<path d="" fill="#3B82F6" transform="translate(0,0)"/>
<path d="" fill="#45F04B" transform="translate(0,0)"/>
<path d="" fill="#3C80F6" transform="translate(0,0)"/>
<path d="" fill="#47ED4C" transform="translate(0,0)"/>
<path d="" fill="#3F80F5" transform="translate(0,0)"/>
<path d="" fill="#4AF14E" transform="translate(0,0)"/>
<path d="" fill="#47ED4A" transform="translate(0,0)"/>
<path d="" fill="#407CF0" transform="translate(0,0)"/>
<path d="" fill="#45F14A" transform="translate(0,0)"/>
<path d="" fill="#4BE756" transform="translate(0,0)"/>
<path d="" fill="#44EE4B" transform="translate(0,0)"/>
<path d="" fill="#47F04A" transform="translate(0,0)"/>
<path d="" fill="#4280EF" transform="translate(0,0)"/>
<path d="" fill="#49EC4A" transform="translate(0,0)"/>
<path d="" fill="#3D7FF2" transform="translate(0,0)"/>
<path d="" fill="#4AEA4C" transform="translate(0,0)"/>
<path d="" fill="#44EC55" transform="translate(0,0)"/>
<path d="" fill="#46E848" transform="translate(0,0)"/>
<path d="" fill="#46F14D" transform="translate(0,0)"/>
<path d="" fill="#4EDE4F" transform="translate(0,0)"/>
<path d="" fill="#4BDB4F" transform="translate(0,0)"/>
<path d="" fill="#44EE4D" transform="translate(0,0)"/>
<path d="" fill="#43F552" transform="translate(0,0)"/>
<path d="" fill="#4BED4D" transform="translate(0,0)"/>
<path d="" fill="#43EA4E" transform="translate(0,0)"/>
<path d="" fill="#4BE64E" transform="translate(0,0)"/>
<path d="" fill="#45E84F" transform="translate(0,0)"/>
<path d="" fill="#4AE64F" transform="translate(0,0)"/>
</svg>
